<mxfile host="app.diagrams.net" modified="2022-03-22T04:45:36.334Z" agent="5.0 (X11; Linux x86_64) AppleWebKit/537.36 (KHTML, like Gecko) Chrome/96.0.4664.110 Safari/537.36" etag="aAsudBUQVBiv6p5DLnA1" version="17.1.3" type="github">
  <diagram id="jA6te9g9JCaBvKjX4yq3" name="Page-1">
    <mxGraphModel dx="456" dy="789" grid="1" gridSize="10" guides="1" tooltips="1" connect="1" arrows="1" fold="1" page="1" pageScale="1" pageWidth="850" pageHeight="1100" math="0" shadow="0">
      <root>
        <mxCell id="0" />
        <mxCell id="1" parent="0" />
        <mxCell id="lWdm13OJTBX0NS7bSp8G-4" value="DNS Lookup" style="edgeStyle=orthogonalEdgeStyle;rounded=0;orthogonalLoop=1;jettySize=auto;html=1;entryX=0.5;entryY=0;entryDx=0;entryDy=0;entryPerimeter=0;" parent="1" source="lWdm13OJTBX0NS7bSp8G-2" target="lWdm13OJTBX0NS7bSp8G-3" edge="1">
          <mxGeometry x="0.7189" relative="1" as="geometry">
            <mxPoint as="offset" />
          </mxGeometry>
        </mxCell>
        <mxCell id="lWdm13OJTBX0NS7bSp8G-7" style="edgeStyle=orthogonalEdgeStyle;rounded=0;orthogonalLoop=1;jettySize=auto;html=1;" parent="1" source="lWdm13OJTBX0NS7bSp8G-2" target="lWdm13OJTBX0NS7bSp8G-5" edge="1">
          <mxGeometry relative="1" as="geometry" />
        </mxCell>
        <mxCell id="lWdm13OJTBX0NS7bSp8G-16" value="Request Static Site" style="edgeLabel;html=1;align=center;verticalAlign=middle;resizable=0;points=[];" parent="lWdm13OJTBX0NS7bSp8G-7" vertex="1" connectable="0">
          <mxGeometry x="-0.2839" y="-2" relative="1" as="geometry">
            <mxPoint as="offset" />
          </mxGeometry>
        </mxCell>
        <mxCell id="lWdm13OJTBX0NS7bSp8G-11" style="edgeStyle=orthogonalEdgeStyle;rounded=0;orthogonalLoop=1;jettySize=auto;html=1;" parent="1" source="lWdm13OJTBX0NS7bSp8G-2" target="lWdm13OJTBX0NS7bSp8G-10" edge="1">
          <mxGeometry relative="1" as="geometry" />
        </mxCell>
        <mxCell id="lWdm13OJTBX0NS7bSp8G-2" value="" style="aspect=fixed;perimeter=ellipsePerimeter;html=1;align=center;shadow=0;dashed=0;spacingTop=3;image;image=img/lib/active_directory/user.svg;" parent="1" vertex="1">
          <mxGeometry x="380" y="40" width="29.6" height="80" as="geometry" />
        </mxCell>
        <mxCell id="lWdm13OJTBX0NS7bSp8G-3" value="Route53 (DNS)" style="outlineConnect=0;dashed=0;verticalLabelPosition=bottom;verticalAlign=top;align=center;html=1;shape=mxgraph.aws3.route_53;fillColor=#F58536;gradientColor=none;" parent="1" vertex="1">
          <mxGeometry x="630" y="180" width="70.5" height="85.5" as="geometry" />
        </mxCell>
        <mxCell id="lWdm13OJTBX0NS7bSp8G-8" style="edgeStyle=orthogonalEdgeStyle;rounded=0;orthogonalLoop=1;jettySize=auto;html=1;" parent="1" source="lWdm13OJTBX0NS7bSp8G-5" target="lWdm13OJTBX0NS7bSp8G-6" edge="1">
          <mxGeometry relative="1" as="geometry" />
        </mxCell>
        <mxCell id="lWdm13OJTBX0NS7bSp8G-5" value="CloudFront (CDN)" style="outlineConnect=0;dashed=0;verticalLabelPosition=bottom;verticalAlign=top;align=center;html=1;shape=mxgraph.aws3.cloudfront;fillColor=#F58536;gradientColor=none;" parent="1" vertex="1">
          <mxGeometry x="356.55" y="240" width="76.5" height="93" as="geometry" />
        </mxCell>
        <mxCell id="lWdm13OJTBX0NS7bSp8G-6" value="S3&lt;br&gt;(Static Site Hosting)" style="verticalLabelPosition=bottom;html=1;verticalAlign=top;strokeWidth=1;align=center;outlineConnect=0;dashed=0;outlineConnect=0;shape=mxgraph.aws3d.s3Bucket;fillColor=#4286c5;strokeColor=#57A2D8;aspect=fixed;" parent="1" vertex="1">
          <mxGeometry x="364.05" y="460" width="61.5" height="63.800000000000004" as="geometry" />
        </mxCell>
        <mxCell id="lWdm13OJTBX0NS7bSp8G-14" style="edgeStyle=orthogonalEdgeStyle;rounded=0;orthogonalLoop=1;jettySize=auto;html=1;entryX=0.5;entryY=0;entryDx=0;entryDy=0;entryPerimeter=0;" parent="1" source="lWdm13OJTBX0NS7bSp8G-10" target="lWdm13OJTBX0NS7bSp8G-12" edge="1">
          <mxGeometry relative="1" as="geometry" />
        </mxCell>
        <mxCell id="lWdm13OJTBX0NS7bSp8G-10" value="API Gateway" style="outlineConnect=0;dashed=0;verticalLabelPosition=bottom;verticalAlign=top;align=center;html=1;shape=mxgraph.aws3.api_gateway;fillColor=#D9A741;gradientColor=none;" parent="1" vertex="1">
          <mxGeometry x="130" y="240" width="76.5" height="93" as="geometry" />
        </mxCell>
        <mxCell id="lWdm13OJTBX0NS7bSp8G-15" style="edgeStyle=orthogonalEdgeStyle;rounded=0;orthogonalLoop=1;jettySize=auto;html=1;entryX=0.5;entryY=0;entryDx=0;entryDy=0;entryPerimeter=0;" parent="1" source="lWdm13OJTBX0NS7bSp8G-12" target="lWdm13OJTBX0NS7bSp8G-13" edge="1">
          <mxGeometry relative="1" as="geometry" />
        </mxCell>
        <mxCell id="lWdm13OJTBX0NS7bSp8G-12" value="Lambda" style="outlineConnect=0;dashed=0;verticalLabelPosition=bottom;verticalAlign=top;align=center;html=1;shape=mxgraph.aws3.lambda;fillColor=#F58534;gradientColor=none;" parent="1" vertex="1">
          <mxGeometry x="130" y="445.4" width="76.5" height="93" as="geometry" />
        </mxCell>
        <mxCell id="lWdm13OJTBX0NS7bSp8G-13" value="Dynamo" style="outlineConnect=0;dashed=0;verticalLabelPosition=bottom;verticalAlign=top;align=center;html=1;shape=mxgraph.aws3.dynamo_db;fillColor=#2E73B8;gradientColor=none;" parent="1" vertex="1">
          <mxGeometry x="132.25" y="660" width="72" height="81" as="geometry" />
        </mxCell>
      </root>
    </mxGraphModel>
  </diagram>
</mxfile>
